<svg xmlns="http://www.w3.org/2000/svg" width="2048" height="667" viewBox="0 0 2048 667">
<defs>
  <pattern id="dots" width="32" height="32" patternUnits="userSpaceOnUse">
    <circle cx="16" cy="16" r="1.2" fill="#E9EEF5"/>
  </pattern>
  <filter id="shadow" x="-10%" y="-10%" width="120%" height="140%">
    <feDropShadow dx="0" dy="8" stdDeviation="12" flood-color="#20304A" flood-opacity="0.06"/>
  </filter>
  <marker id="arrowGray" markerWidth="8" markerHeight="8" refX="7" refY="4" orient="auto">
    <path d="M0,0 L8,4 L0,8 z" fill="#94A3B8"/>
  </marker>
  <marker id="arrowGreen" markerWidth="10" markerHeight="10" refX="8" refY="5" orient="auto">
    <path d="M0,0 L10,5 L0,10 z" fill="#23B26D"/>
  </marker>
  <marker id="arrowPurple" markerWidth="10" markerHeight="10" refX="8" refY="5" orient="auto">
    <path d="M0,0 L10,5 L0,10 z" fill="#9C6FFF"/>
  </marker>
</defs>
<rect width="2048" height="667" fill="#F7FAFD"/><rect width="2048" height="667" fill="url(#dots)"/><path d="M 296 24 L 1940 24 L 1940 154" fill="none" stroke="#23B26D" stroke-width="3" stroke-dasharray="12 8" /><line x1="296" y1="24" x2="296" y2="165" stroke="#23B26D" stroke-width="3" stroke-dasharray="12 8" marker-end="url(#arrowGreen)" /><rect x="830" y="2" width="195" height="24" rx="12" ry="12" fill="#EDF9F1" stroke="#A8DEBE" stroke-width="1" /><text x="842" y="18" font-size="12" font-weight="700" fill="#13935B" text-anchor="start" font-family="Inter, PingFang SC, Microsoft YaHei, Noto Sans SC, sans-serif">监控反馈 → 设计 / 需求</text><rect x="28" y="48" width="718" height="42" rx="21" ry="21" fill="#EAF3FF" stroke="#9EBEFF" stroke-width="1.5" opacity="0.92" /><rect x="40" y="56" width="89" height="20" rx="10" ry="10" fill="#EAF3FF" stroke="none" stroke-width="1" /><text x="50" y="70" font-size="12" font-weight="700" fill="#5B7CCF" text-anchor="start" font-family="Inter, PingFang SC, Microsoft YaHei, Noto Sans SC, sans-serif">内部反馈环</text><text x="146" y="75" font-size="14" font-weight="700" fill="#617086" text-anchor="start" font-family="Inter, PingFang SC, Microsoft YaHei, Noto Sans SC, sans-serif">覆盖 需求定义 → 本地验证</text><rect x="758" y="48" width="722" height="42" rx="21" ry="21" fill="#F3EDFF" stroke="#D4C2FF" stroke-width="1.5" opacity="0.92" /><rect x="770" y="56" width="89" height="20" rx="10" ry="10" fill="#F3EDFF" stroke="none" stroke-width="1" /><text x="780" y="70" font-size="12" font-weight="700" fill="#8C63E8" text-anchor="start" font-family="Inter, PingFang SC, Microsoft YaHei, Noto Sans SC, sans-serif">推送反馈环</text><text x="876" y="75" font-size="14" font-weight="700" fill="#617086" text-anchor="start" font-family="Inter, PingFang SC, Microsoft YaHei, Noto Sans SC, sans-serif">覆盖 主干集成 → 制品发布</text><rect x="1496" y="48" width="496" height="42" rx="21" ry="21" fill="#FFF7E5" stroke="#F0D274" stroke-width="1.5" opacity="0.92" /><rect x="1508" y="56" width="89" height="20" rx="10" ry="10" fill="#FFF7E5" stroke="none" stroke-width="1" /><text x="1518" y="70" font-size="12" font-weight="700" fill="#B28714" text-anchor="start" font-family="Inter, PingFang SC, Microsoft YaHei, Noto Sans SC, sans-serif">外部反馈环</text><text x="1614" y="75" font-size="14" font-weight="700" fill="#617086" text-anchor="start" font-family="Inter, PingFang SC, Microsoft YaHei, Noto Sans SC, sans-serif">覆盖 预生产验证 → 监控演进</text><rect x="28" y="172" width="170" height="216" rx="22" ry="22" fill="#FFFFFF" stroke="#D8E2EE" stroke-width="1.2" /><rect x="28" y="172" width="170" height="28" rx="22" ry="22" fill="#90B0F4" stroke="none" stroke-width="0" /><rect x="28" y="186" width="170" height="14" rx="0" ry="0" fill="#90B0F4" stroke="none" stroke-width="0" /><rect x="114" y="185" width="66" height="22" rx="11" ry="11" fill="#EDF9F1" stroke="#A7DEC0" stroke-width="1" /><text x="124" y="200" font-size="12" font-weight="700" fill="#169B62" text-anchor="start" font-family="Inter, PingFang SC, Microsoft YaHei, Noto Sans SC, sans-serif">已连接</text><text x="48" y="250" font-size="22" font-weight="800" fill="#111827" text-anchor="start" font-family="Inter, PingFang SC, Microsoft YaHei, Noto Sans SC, sans-serif">需求定义</text><text x="48" y="284" font-size="13" font-weight="600" fill="#8A96A8" text-anchor="start" font-family="Inter, PingFang SC, Microsoft YaHei, Noto Sans SC, sans-serif">Spec / 需求边界</text><line x1="46" y1="304" x2="180" y2="304" stroke="#E6EDF5" stroke-width="1" /><text x="48" y="334" font-size="13" font-weight="700" fill="#64748B" text-anchor="start" font-family="Inter, PingFang SC, Microsoft YaHei, Noto Sans SC, sans-serif">1 spec</text><rect x="212" y="172" width="170" height="216" rx="22" ry="22" fill="#FFFFFF" stroke="#D8E2EE" stroke-width="1.2" /><rect x="212" y="172" width="170" height="28" rx="22" ry="22" fill="#90B0F4" stroke="none" stroke-width="0" /><rect x="212" y="186" width="170" height="14" rx="0" ry="0" fill="#90B0F4" stroke="none" stroke-width="0" /><rect x="298" y="185" width="66" height="22" rx="11" ry="11" fill="#EDF9F1" stroke="#A7DEC0" stroke-width="1" /><text x="308" y="200" font-size="12" font-weight="700" fill="#169B62" text-anchor="start" font-family="Inter, PingFang SC, Microsoft YaHei, Noto Sans SC, sans-serif">已连接</text><text x="232" y="250" font-size="22" font-weight="800" fill="#111827" text-anchor="start" font-family="Inter, PingFang SC, Microsoft YaHei, Noto Sans SC, sans-serif">设计决策</text><text x="232" y="284" font-size="13" font-weight="600" fill="#8A96A8" text-anchor="start" font-family="Inter, PingFang SC, Microsoft YaHei, Noto Sans SC, sans-serif">Canonical / ADR</text><line x1="230" y1="304" x2="364" y2="304" stroke="#E6EDF5" stroke-width="1" /><text x="232" y="334" font-size="13" font-weight="700" fill="#64748B" text-anchor="start" font-family="Inter, PingFang SC, Microsoft YaHei, Noto Sans SC, sans-serif">1 + 6 ADRs</text><rect x="396" y="172" width="170" height="216" rx="22" ry="22" fill="#FFFFFF" stroke="#D8E2EE" stroke-width="1.2" /><rect x="396" y="172" width="170" height="28" rx="22" ry="22" fill="#90B0F4" stroke="none" stroke-width="0" /><rect x="396" y="186" width="170" height="14" rx="0" ry="0" fill="#90B0F4" stroke="none" stroke-width="0" /><rect x="482" y="185" width="66" height="22" rx="11" ry="11" fill="#EDF9F1" stroke="#A7DEC0" stroke-width="1" /><text x="492" y="200" font-size="12" font-weight="700" fill="#169B62" text-anchor="start" font-family="Inter, PingFang SC, Microsoft YaHei, Noto Sans SC, sans-serif">已连接</text><text x="416" y="250" font-size="22" font-weight="800" fill="#111827" text-anchor="start" font-family="Inter, PingFang SC, Microsoft YaHei, Noto Sans SC, sans-serif">编码实现</text><text x="416" y="284" font-size="13" font-weight="600" fill="#8A96A8" text-anchor="start" font-family="Inter, PingFang SC, Microsoft YaHei, Noto Sans SC, sans-serif">受 CLAUDE.md 约束</text><line x1="414" y1="304" x2="548" y2="304" stroke="#E6EDF5" stroke-width="1" /><text x="416" y="334" font-size="13" font-weight="700" fill="#64748B" text-anchor="start" font-family="Inter, PingFang SC, Microsoft YaHei, Noto Sans SC, sans-serif">rules active</text><rect x="580" y="172" width="170" height="216" rx="22" ry="22" fill="#FFFFFF" stroke="#D8E2EE" stroke-width="1.2" /><rect x="580" y="172" width="170" height="28" rx="22" ry="22" fill="#90B0F4" stroke="none" stroke-width="0" /><rect x="580" y="186" width="170" height="14" rx="0" ry="0" fill="#90B0F4" stroke="none" stroke-width="0" /><rect x="666" y="185" width="66" height="22" rx="11" ry="11" fill="#EDF9F1" stroke="#A7DEC0" stroke-width="1" /><text x="676" y="200" font-size="12" font-weight="700" fill="#169B62" text-anchor="start" font-family="Inter, PingFang SC, Microsoft YaHei, Noto Sans SC, sans-serif">已连接</text><text x="600" y="250" font-size="22" font-weight="800" fill="#111827" text-anchor="start" font-family="Inter, PingFang SC, Microsoft YaHei, Noto Sans SC, sans-serif">本地验证</text><text x="600" y="284" font-size="13" font-weight="600" fill="#8A96A8" text-anchor="start" font-family="Inter, PingFang SC, Microsoft YaHei, Noto Sans SC, sans-serif">tests / regression</text><line x1="598" y1="304" x2="732" y2="304" stroke="#E6EDF5" stroke-width="1" /><text x="600" y="334" font-size="13" font-weight="700" fill="#64748B" text-anchor="start" font-family="Inter, PingFang SC, Microsoft YaHei, Noto Sans SC, sans-serif">smoke enabled</text><rect x="764" y="172" width="170" height="216" rx="22" ry="22" fill="#FFFFFF" stroke="#D8E2EE" stroke-width="1.2" /><rect x="764" y="172" width="170" height="28" rx="22" ry="22" fill="#C8B6F7" stroke="none" stroke-width="0" /><rect x="764" y="186" width="170" height="14" rx="0" ry="0" fill="#C8B6F7" stroke="none" stroke-width="0" /><rect x="850" y="185" width="77" height="22" rx="11" ry="11" fill="#FFF8E8" stroke="#F0D274" stroke-width="1" /><text x="860" y="200" font-size="12" font-weight="700" fill="#B28714" text-anchor="start" font-family="Inter, PingFang SC, Microsoft YaHei, Noto Sans SC, sans-serif">部分接入</text><text x="784" y="250" font-size="22" font-weight="800" fill="#111827" text-anchor="start" font-family="Inter, PingFang SC, Microsoft YaHei, Noto Sans SC, sans-serif">主干集成</text><text x="784" y="284" font-size="13" font-weight="600" fill="#8A96A8" text-anchor="start" font-family="Inter, PingFang SC, Microsoft YaHei, Noto Sans SC, sans-serif">merge / trunk</text><line x1="782" y1="304" x2="916" y2="304" stroke="#E6EDF5" stroke-width="1" /><text x="784" y="334" font-size="13" font-weight="700" fill="#64748B" text-anchor="start" font-family="Inter, PingFang SC, Microsoft YaHei, Noto Sans SC, sans-serif">缺 trunk merge</text><rect x="948" y="172" width="170" height="216" rx="22" ry="22" fill="#FFFFFF" stroke="#D8E2EE" stroke-width="1.2" /><rect x="948" y="172" width="170" height="28" rx="22" ry="22" fill="#C8B6F7" stroke="none" stroke-width="0" /><rect x="948" y="186" width="170" height="14" rx="0" ry="0" fill="#C8B6F7" stroke="none" stroke-width="0" /><rect x="1034" y="185" width="66" height="22" rx="11" ry="11" fill="#EDF9F1" stroke="#A7DEC0" stroke-width="1" /><text x="1044" y="200" font-size="12" font-weight="700" fill="#169B62" text-anchor="start" font-family="Inter, PingFang SC, Microsoft YaHei, Noto Sans SC, sans-serif">已连接</text><text x="968" y="250" font-size="22" font-weight="800" fill="#111827" text-anchor="start" font-family="Inter, PingFang SC, Microsoft YaHei, Noto Sans SC, sans-serif">代码评审</text><text x="968" y="284" font-size="13" font-weight="600" fill="#8A96A8" text-anchor="start" font-family="Inter, PingFang SC, Microsoft YaHei, Noto Sans SC, sans-serif">owners / human review</text><line x1="966" y1="304" x2="1100" y2="304" stroke="#E6EDF5" stroke-width="1" /><text x="968" y="334" font-size="13" font-weight="700" fill="#64748B" text-anchor="start" font-family="Inter, PingFang SC, Microsoft YaHei, Noto Sans SC, sans-serif">review linked</text><rect x="1132" y="172" width="170" height="216" rx="22" ry="22" fill="#FFFFFF" stroke="#D8E2EE" stroke-width="1.2" /><rect x="1132" y="172" width="170" height="28" rx="22" ry="22" fill="#C8B6F7" stroke="none" stroke-width="0" /><rect x="1132" y="186" width="170" height="14" rx="0" ry="0" fill="#C8B6F7" stroke="none" stroke-width="0" /><rect x="1218" y="185" width="66" height="22" rx="11" ry="11" fill="#EDF9F1" stroke="#A7DEC0" stroke-width="1" /><text x="1228" y="200" font-size="12" font-weight="700" fill="#169B62" text-anchor="start" font-family="Inter, PingFang SC, Microsoft YaHei, Noto Sans SC, sans-serif">已连接</text><text x="1152" y="250" font-size="22" font-weight="800" fill="#111827" text-anchor="start" font-family="Inter, PingFang SC, Microsoft YaHei, Noto Sans SC, sans-serif">变更门禁</text><text x="1152" y="284" font-size="13" font-weight="600" fill="#8A96A8" text-anchor="start" font-family="Inter, PingFang SC, Microsoft YaHei, Noto Sans SC, sans-serif">31 metrics / 13 gates</text><line x1="1150" y1="304" x2="1284" y2="304" stroke="#E6EDF5" stroke-width="1" /><text x="1152" y="334" font-size="13" font-weight="700" fill="#64748B" text-anchor="start" font-family="Inter, PingFang SC, Microsoft YaHei, Noto Sans SC, sans-serif">policy healthy</text><rect x="1316" y="172" width="170" height="216" rx="22" ry="22" fill="#FFFFFF" stroke="#D8E2EE" stroke-width="1.2" /><rect x="1316" y="172" width="170" height="28" rx="22" ry="22" fill="#C8B6F7" stroke="none" stroke-width="0" /><rect x="1316" y="186" width="170" height="14" rx="0" ry="0" fill="#C8B6F7" stroke="none" stroke-width="0" /><rect x="1402" y="185" width="66" height="22" rx="11" ry="11" fill="#EDF9F1" stroke="#A7DEC0" stroke-width="1" /><text x="1412" y="200" font-size="12" font-weight="700" fill="#169B62" text-anchor="start" font-family="Inter, PingFang SC, Microsoft YaHei, Noto Sans SC, sans-serif">已连接</text><text x="1336" y="250" font-size="22" font-weight="800" fill="#111827" text-anchor="start" font-family="Inter, PingFang SC, Microsoft YaHei, Noto Sans SC, sans-serif">制品发布</text><text x="1336" y="284" font-size="13" font-weight="600" fill="#8A96A8" text-anchor="start" font-family="Inter, PingFang SC, Microsoft YaHei, Noto Sans SC, sans-serif">4 release flows</text><line x1="1334" y1="304" x2="1468" y2="304" stroke="#E6EDF5" stroke-width="1" /><text x="1336" y="334" font-size="13" font-weight="700" fill="#64748B" text-anchor="start" font-family="Inter, PingFang SC, Microsoft YaHei, Noto Sans SC, sans-serif">release active</text><rect x="1500" y="172" width="170" height="216" rx="22" ry="22" fill="#FFFFFF" stroke="#D8E2EE" stroke-width="1.2" /><rect x="1500" y="172" width="170" height="28" rx="22" ry="22" fill="#EDCA62" stroke="none" stroke-width="0" /><rect x="1500" y="186" width="170" height="14" rx="0" ry="0" fill="#EDCA62" stroke="none" stroke-width="0" /><rect x="1586" y="185" width="77" height="22" rx="11" ry="11" fill="#FFF8E8" stroke="#F0D274" stroke-width="1" /><text x="1596" y="200" font-size="12" font-weight="700" fill="#B28714" text-anchor="start" font-family="Inter, PingFang SC, Microsoft YaHei, Noto Sans SC, sans-serif">部分接入</text><text x="1520" y="250" font-size="22" font-weight="800" fill="#111827" text-anchor="start" font-family="Inter, PingFang SC, Microsoft YaHei, Noto Sans SC, sans-serif">预生产验证</text><text x="1520" y="284" font-size="13" font-weight="600" fill="#8A96A8" text-anchor="start" font-family="Inter, PingFang SC, Microsoft YaHei, Noto Sans SC, sans-serif">staging / smoke</text><line x1="1518" y1="304" x2="1652" y2="304" stroke="#E6EDF5" stroke-width="1" /><text x="1520" y="334" font-size="13" font-weight="700" fill="#64748B" text-anchor="start" font-family="Inter, PingFang SC, Microsoft YaHei, Noto Sans SC, sans-serif">缺 staging source</text><rect x="1684" y="172" width="170" height="216" rx="22" ry="22" fill="#FFFFFF" stroke="#D8E2EE" stroke-width="1.2" /><rect x="1684" y="172" width="170" height="28" rx="22" ry="22" fill="#EDCA62" stroke="none" stroke-width="0" /><rect x="1684" y="186" width="170" height="14" rx="0" ry="0" fill="#EDCA62" stroke="none" stroke-width="0" /><rect x="1770" y="185" width="77" height="22" rx="11" ry="11" fill="#FFF8E8" stroke="#F0D274" stroke-width="1" /><text x="1780" y="200" font-size="12" font-weight="700" fill="#B28714" text-anchor="start" font-family="Inter, PingFang SC, Microsoft YaHei, Noto Sans SC, sans-serif">部分接入</text><text x="1704" y="250" font-size="22" font-weight="800" fill="#111827" text-anchor="start" font-family="Inter, PingFang SC, Microsoft YaHei, Noto Sans SC, sans-serif">生产运行</text><text x="1704" y="284" font-size="13" font-weight="600" fill="#8A96A8" text-anchor="start" font-family="Inter, PingFang SC, Microsoft YaHei, Noto Sans SC, sans-serif">runtime / status</text><line x1="1702" y1="304" x2="1836" y2="304" stroke="#E6EDF5" stroke-width="1" /><text x="1704" y="334" font-size="13" font-weight="700" fill="#64748B" text-anchor="start" font-family="Inter, PingFang SC, Microsoft YaHei, Noto Sans SC, sans-serif">缺 runtime source</text><rect x="1868" y="172" width="170" height="216" rx="22" ry="22" fill="#FFFFFF" stroke="#D8E2EE" stroke-width="1.2" /><rect x="1868" y="172" width="170" height="28" rx="22" ry="22" fill="#EDCA62" stroke="none" stroke-width="0" /><rect x="1868" y="186" width="170" height="14" rx="0" ry="0" fill="#EDCA62" stroke="none" stroke-width="0" /><rect x="1954" y="185" width="66" height="22" rx="11" ry="11" fill="#F4F6FA" stroke="#D6DFEC" stroke-width="1" /><text x="1964" y="200" font-size="12" font-weight="700" fill="#8291A7" text-anchor="start" font-family="Inter, PingFang SC, Microsoft YaHei, Noto Sans SC, sans-serif">未接入</text><text x="1888" y="250" font-size="22" font-weight="800" fill="#111827" text-anchor="start" font-family="Inter, PingFang SC, Microsoft YaHei, Noto Sans SC, sans-serif">监控演进</text><text x="1888" y="284" font-size="13" font-weight="600" fill="#8A96A8" text-anchor="start" font-family="Inter, PingFang SC, Microsoft YaHei, Noto Sans SC, sans-serif">observability / feedback</text><line x1="1886" y1="304" x2="2020" y2="304" stroke="#E6EDF5" stroke-width="1" /><text x="1888" y="334" font-size="13" font-weight="700" fill="#64748B" text-anchor="start" font-family="Inter, PingFang SC, Microsoft YaHei, Noto Sans SC, sans-serif">缺 observability</text><line x1="52" y1="418" x2="1980" y2="418" stroke="#B8C5D6" stroke-width="3" marker-end="url(#arrowGray)" /><line x1="113.0" y1="388" x2="113.0" y2="410" stroke="#D4DDE9" stroke-width="2" /><circle cx="113.0" cy="418" r="7" fill="#F7FAFD" stroke="#CCD7E5" stroke-width="3" /><line x1="297.0" y1="388" x2="297.0" y2="410" stroke="#D4DDE9" stroke-width="2" /><circle cx="297.0" cy="418" r="7" fill="#F7FAFD" stroke="#CCD7E5" stroke-width="3" /><line x1="481.0" y1="388" x2="481.0" y2="410" stroke="#D4DDE9" stroke-width="2" /><circle cx="481.0" cy="418" r="7" fill="#F7FAFD" stroke="#CCD7E5" stroke-width="3" /><line x1="665.0" y1="388" x2="665.0" y2="410" stroke="#D4DDE9" stroke-width="2" /><circle cx="665.0" cy="418" r="7" fill="#F7FAFD" stroke="#CCD7E5" stroke-width="3" /><line x1="849.0" y1="388" x2="849.0" y2="410" stroke="#D4DDE9" stroke-width="2" /><circle cx="849.0" cy="418" r="7" fill="#F7FAFD" stroke="#CCD7E5" stroke-width="3" /><line x1="1033.0" y1="388" x2="1033.0" y2="410" stroke="#D4DDE9" stroke-width="2" /><circle cx="1033.0" cy="418" r="7" fill="#F7FAFD" stroke="#CCD7E5" stroke-width="3" /><line x1="1217.0" y1="388" x2="1217.0" y2="410" stroke="#D4DDE9" stroke-width="2" /><circle cx="1217.0" cy="418" r="7" fill="#F7FAFD" stroke="#CCD7E5" stroke-width="3" /><line x1="1401.0" y1="388" x2="1401.0" y2="410" stroke="#D4DDE9" stroke-width="2" /><circle cx="1401.0" cy="418" r="7" fill="#F7FAFD" stroke="#CCD7E5" stroke-width="3" /><line x1="1585.0" y1="388" x2="1585.0" y2="410" stroke="#D4DDE9" stroke-width="2" /><circle cx="1585.0" cy="418" r="7" fill="#F7FAFD" stroke="#CCD7E5" stroke-width="3" /><line x1="1769.0" y1="388" x2="1769.0" y2="410" stroke="#D4DDE9" stroke-width="2" /><circle cx="1769.0" cy="418" r="7" fill="#F7FAFD" stroke="#CCD7E5" stroke-width="3" /><line x1="1953.0" y1="388" x2="1953.0" y2="410" stroke="#D4DDE9" stroke-width="2" /><circle cx="1953.0" cy="418" r="7" fill="#F7FAFD" stroke="#CCD7E5" stroke-width="3" /><text x="8" y="502" font-size="14" font-weight="700" fill="#7A879A" text-anchor="start" font-family="Inter, PingFang SC, Microsoft YaHei, Noto Sans SC, sans-serif">Capabilities</text><line x1="481.0" y1="416" x2="481.0" y2="507" stroke="#9C6FFF" stroke-width="3" stroke-dasharray="10 8" marker-end="url(#arrowPurple)" /><line x1="481.0" y1="507" x2="1217.0" y2="507" stroke="#9C6FFF" stroke-width="3" stroke-dasharray="10 8" /><line x1="1217.0" y1="507" x2="1217.0" y2="416" stroke="#9C6FFF" stroke-width="3" stroke-dasharray="10 8" /><rect x="1105.0" y="437" width="104" height="24" rx="12" ry="12" fill="#F4EEFF" stroke="#D4C2FF" stroke-width="1" /><text x="1117.0" y="453" font-size="12" font-weight="700" fill="#8C63E8" text-anchor="start" font-family="Inter, PingFang SC, Microsoft YaHei, Noto Sans SC, sans-serif">自动修复重试</text><rect x="760" y="518" width="704" height="40" rx="18" ry="18" fill="#FFFFFF" stroke="#D8E2EE" stroke-width="1.5" filter="url(#shadow)"/><rect x="770" y="526" width="8" height="24" rx="4" ry="4" fill="#EADFFF" stroke="none" stroke-width="1" /><text x="788" y="545" font-size="14" font-weight="800" fill="#8C63E8" text-anchor="start" font-family="Inter, PingFang SC, Microsoft YaHei, Noto Sans SC, sans-serif">持续交付</text><text x="872" y="545" font-size="13" font-weight="700" fill="#7C8799" text-anchor="start" font-family="Inter, PingFang SC, Microsoft YaHei, Noto Sans SC, sans-serif">14 flows / 26 jobs · 持续覆盖主干集成 → 制品发布</text><rect x="1494" y="578" width="504" height="40" rx="18" ry="18" fill="#FFFFFF" stroke="#D8E2EE" stroke-width="1.5" filter="url(#shadow)"/><rect x="1504" y="586" width="8" height="24" rx="4" ry="4" fill="#F6E9BE" stroke="none" stroke-width="1" /><text x="1522" y="605" font-size="14" font-weight="800" fill="#C39216" text-anchor="start" font-family="Inter, PingFang SC, Microsoft YaHei, Noto Sans SC, sans-serif">运行反馈</text><text x="1610" y="605" font-size="13" font-weight="700" fill="#7C8799" text-anchor="start" font-family="Inter, PingFang SC, Microsoft YaHei, Noto Sans SC, sans-serif">将 runtime / observability 信号回灌到设计与需求</text></svg>